 <svg width="77" height="77" viewBox="0 0 77 77" fill="none" xmlns="http://www.w3.org/2000/svg">
                        <path d="M10.8217 11.7291C3.86442 18.9021 -0.0183047 28.5073 6.65767e-05 38.5C6.7023e-05 48.7108 4.0563 58.5036 11.2764 65.7238C18.4966 72.9439 28.2892 77 38.5 77C48.7109 77 58.5035 72.9439 65.7236 65.7238C72.9438 58.5036 77 48.7108 77 38.5C77 28.2892 72.9438 18.4966 65.7236 11.2765C58.5035 4.05633 48.7109 2.67772e-05 38.5 2.72235e-05C33.5019 -0.00610619 28.5506 0.963935 23.9242 2.85542"
                              fill="#04BBF2" />
                        <path d="M27 45L39.5455 55L50 45" stroke="white" stroke-width="5" stroke-linejoin="round" />
                        <path d="M39 22L39 52.1576" stroke="white" stroke-width="5" stroke-linejoin="round" />
                    </svg>