<svg id="eBcIJPhmVbi1" xmlns="http://www.w3.org/2000/svg" xmlns:xlink="http://www.w3.org/1999/xlink" viewBox="0 0 60 60" shape-rendering="geometricPrecision" text-rendering="geometricPrecision"><style><![CDATA[#eBcIJPhmVbi2_tr {animation: eBcIJPhmVbi2_tr__tr 3000ms linear infinite normal forwards}@keyframes eBcIJPhmVbi2_tr__tr { 0% {transform: translate(11px,38.062527px) rotate(13.59176deg);animation-timing-function: cubic-bezier(0.25,0.46,0.45,0.94)} 26.666667% {transform: translate(11px,38.062527px) rotate(0deg)} 100% {transform: translate(11px,38.062527px) rotate(0deg)}} #eBcIJPhmVbi4 {animation: eBcIJPhmVbi4__m 3000ms linear infinite normal forwards}@keyframes eBcIJPhmVbi4__m { 0% {d: path('M36.937161,45.181048C36.937161,45.181048,40.558079,45.262432,47.537114,45.073265C49.74289,45.084584,49.856214,45.073265,50.383314,46.127365C50.910314,47.076065,50.594114,48.130265,49.856214,48.868165L37.411114,51.779566C34.697942,52.533029,33.548852,52.329193,32.283852,52.118393L18.9061,50.4973L11,50.4973')} 10% {d: path('M38.094849,44.263615C38.094849,44.263615,41.451487,43.114345,46.920234,42.521778C48.694131,42.33119,49.239334,42.521778,49.766434,43.575878C50.293434,44.524578,49.977234,45.578778,49.239334,46.316678L37.310459,51.733566C35.258964,52.520718,34.026883,52.551421,32.761883,52.340621L18.9061,50.4973L11,50.4973')} 26.666667% {d: path('M38.4077,42.3804C38.4077,42.3804,42.9405,39.5342,45.8921,38.2693C46.9462,37.7422,48.2112,38.2693,48.7383,39.3234C49.2653,40.2721,48.9491,41.3263,48.2112,42.0642L37.1427,51.6569C36.194,52.5002,34.8236,52.9218,33.5586,52.711L18.9061,50.4973L11,50.4973')} 100% {d: path('M38.4077,42.3804C38.4077,42.3804,42.9405,39.5342,45.8921,38.2693C46.9462,37.7422,48.2112,38.2693,48.7383,39.3234C49.2653,40.2721,48.9491,41.3263,48.2112,42.0642L37.1427,51.6569C36.194,52.5002,34.8236,52.9218,33.5586,52.711L18.9061,50.4973L11,50.4973')}} #eBcIJPhmVbi6 {animation: eBcIJPhmVbi6_s_do 3000ms linear infinite normal forwards}@keyframes eBcIJPhmVbi6_s_do { 0% {stroke-dashoffset: 70} 26.666667% {stroke-dashoffset: 70} 66.666667% {stroke-dashoffset: 0} 100% {stroke-dashoffset: 0}} #eBcIJPhmVbi7 {animation: eBcIJPhmVbi7_s_do 3000ms linear infinite normal forwards}@keyframes eBcIJPhmVbi7_s_do { 0% {stroke-dashoffset: 30} 50% {stroke-dashoffset: 30} 66.666667% {stroke-dashoffset: 0} 100% {stroke-dashoffset: 0}} #eBcIJPhmVbi8 {animation: eBcIJPhmVbi8_s_do 3000ms linear infinite normal forwards}@keyframes eBcIJPhmVbi8_s_do { 0% {stroke-dashoffset: 30} 50% {stroke-dashoffset: 30} 66.666667% {stroke-dashoffset: 0} 100% {stroke-dashoffset: 0}}]]></style><g id="eBcIJPhmVbi2_tr" transform="translate(11,38.062527) rotate(13.59176)"><g transform="translate(-10.999998,-38.062518)"><path d="M11,40.799h7.0627c.7379-.6325,2.3192-1.792,4.7437-2.2137c4.0057-.5271,6.8519,1.792,7.379,2.2137h5.6923c1.265,0,2.3192,1.0541,2.3192,2.3191s-1.0542,2.3191-2.3192,2.3191h-5.6923" fill="none" stroke="#10385b" stroke-width="2" stroke-linecap="round" stroke-linejoin="round" stroke-miterlimit="10"/><path id="eBcIJPhmVbi4" d="M36.937161,45.181048c0,0,3.620918.081384,10.599953-.107783c2.205776.011319,2.3191,0,2.8462,1.0541.527.9487.2108,2.0029-.5271,2.7408l-12.4451,2.911401c-2.713172.753463-3.862262.549627-5.127262.338827L18.9061,50.4973h-7.9061" fill="none" stroke="#10385b" stroke-width="2" stroke-linecap="round" stroke-linejoin="round" stroke-miterlimit="10"/></g></g><g transform="translate(0 0.000001)"><path id="eBcIJPhmVbi6" d="M44.5564,17.028c0-5.3176-4.6015-9.57161-10.056-8.97141-4.0224.45278-7.3288,3.65381-7.8974,7.65521-.4949,3.5064,1.032,6.697,3.5802,8.5818c1.053.7687,1.8216,1.8638,2.106,3.1379l.0631.2633c.158.7265.8003,1.2319,1.5479,1.2319h3.2853c.7371,0,1.3794-.5159,1.5479-1.2319l.0632-.2633c.2948-1.2846,1.0846-2.3797,2.1376-3.1695c2.2112-1.6426,3.6433-4.2646,3.6433-7.234h-.0211Z" fill="none" stroke="#04bbf2" stroke-width="2" stroke-linecap="round" stroke-linejoin="round" stroke-dashoffset="70" stroke-dasharray="70"/><path id="eBcIJPhmVbi7" d="M37.2277,28.9277h-3.4011c-.7909,0-1.4321.6388-1.4321,1.4268s.6412,1.4268,1.4321,1.4268h3.4011c.7909,0,1.4321-.6388,1.4321-1.4268s-.6412-1.4268-1.4321-1.4268Z" fill="none" stroke="#04bbf2" stroke-width="2" stroke-linecap="round" stroke-linejoin="round" stroke-dashoffset="30" stroke-dasharray="30"/><path id="eBcIJPhmVbi8" d="M36.6799,31.7812h-2.2849c-.7502,0-1.3584.6058-1.3584,1.3531s.6082,1.3531,1.3584,1.3531h2.2849c.7502,0,1.3584-.6058,1.3584-1.3531s-.6082-1.3531-1.3584-1.3531Z" transform="translate(0 0.0001)" fill="none" stroke="#04bbf2" stroke-width="2" stroke-linecap="round" stroke-linejoin="round" stroke-dashoffset="30" stroke-dasharray="30"/></g></svg>